<svg
      width="350"
      height="146"
      viewBox="0 0 350 146"
      fill="none"
      xmlns="http://www.w3.org/2000/svg"
    >
      <g clip-path="url(#clip0_6148_34673)">
        <g filter="url(#filter0_d_6148_34673)">
          <path
            d="M0 1.4502H16.1795V69.1129H0V1.4502ZM6.49059 1.4502H55.226V15.9493H6.49059V1.4502ZM6.49059 28.0297H51.3477V42.5289H6.49059V28.0297ZM6.49059 54.6137H56.1922V69.1129H6.49059V54.6137Z"
            fill="url(#paint0_linear_6148_34673)"
          />
          <path
            d="M63.752 46.5899V32.0907H94.0757C96.8535 32.0907 99.0812 31.9122 100.763 31.5597C102.441 31.2071 103.751 30.6895 104.686 30.0156C105.621 29.3373 106.252 28.5028 106.574 27.5031C106.896 26.5035 107.057 25.3298 107.057 23.9732C107.057 22.6165 106.896 21.541 106.574 20.5414C106.252 19.5418 105.621 18.7028 104.686 18.0289C103.751 17.3506 102.441 16.8374 100.763 16.4804C99.0812 16.1278 96.8535 15.9493 94.0757 15.9493H63.752V1.4502H94.5633C99.9892 1.4502 104.556 1.93216 108.274 2.90056C111.986 3.86895 114.992 5.28361 117.283 7.15346C119.573 9.02331 121.206 11.3751 122.176 14.2089C123.147 17.0472 123.63 20.3004 123.63 23.9732C123.63 27.6459 123.147 30.9795 122.176 33.7821C121.206 36.5846 119.591 38.9364 117.332 40.8375C115.068 42.7386 112.116 44.1711 108.466 45.1395C104.816 46.1079 100.311 46.5899 94.9524 46.5899H63.7564H63.752ZM63.752 1.4502H79.9315V69.1129H63.752V1.4502ZM123.335 69.1084H103.765L78.0885 35.2771H97.6587L123.335 69.1084Z"
            fill="url(#paint1_linear_6148_34673)"
          />
          <path
            d="M131.377 46.5899V32.0907H161.701C164.479 32.0907 166.706 31.9122 168.388 31.5597C170.066 31.2071 171.376 30.6895 172.311 30.0156C173.246 29.3373 173.877 28.5028 174.199 27.5031C174.521 26.5035 174.682 25.3298 174.682 23.9732C174.682 22.6165 174.521 21.541 174.199 20.5414C173.877 19.5418 173.246 18.7028 172.311 18.0289C171.376 17.3506 170.066 16.8374 168.388 16.4804C166.706 16.1278 164.479 15.9493 161.701 15.9493H131.377V1.4502H162.188C167.614 1.4502 172.181 1.93216 175.899 2.90056C179.611 3.86895 182.617 5.28361 184.908 7.15346C187.198 9.02331 188.831 11.3751 189.801 14.2089C190.772 17.0472 191.255 20.3004 191.255 23.9732C191.255 27.6459 190.772 30.9795 189.801 33.7821C188.831 36.5846 187.216 38.9364 184.957 40.8375C182.693 42.7386 179.741 44.1711 176.091 45.1395C172.441 46.1079 167.936 46.5899 162.577 46.5899H131.381H131.377ZM131.377 1.4502H147.556V69.1129H131.377V1.4502ZM190.96 69.1084H171.39L145.714 35.2771H165.284L190.96 69.1084Z"
            fill="url(#paint2_linear_6148_34673)"
          />
          <path
            d="M205.592 8.89406C211.278 2.96766 220.027 0 231.85 0C243.673 0 252.324 2.9632 258.009 8.89406C263.69 14.8249 266.535 23.6208 266.535 35.2817C266.535 46.9426 263.69 55.7429 258.009 61.6693C252.324 67.6002 243.605 70.5634 231.85 70.5634C220.094 70.5634 211.278 67.6002 205.592 61.6693C199.907 55.7429 197.066 46.9471 197.066 35.2817C197.066 23.6163 199.907 14.8249 205.592 8.89406ZM218.09 50.5529C220.998 53.9713 225.552 55.676 231.752 55.676C237.951 55.676 242.523 53.9713 245.462 50.5529C248.401 47.139 249.872 42.0471 249.872 35.2817C249.872 28.5163 248.401 23.4244 245.462 20.0105C242.523 16.5966 237.951 14.8874 231.752 14.8874C225.552 14.8874 220.671 16.5966 217.898 20.0105C215.12 23.4289 213.734 28.5163 213.734 35.2817C213.734 42.0471 215.187 47.139 218.095 50.5529H218.09Z"
            fill="url(#paint3_linear_6148_34673)"
          />
          <path
            d="M274.283 46.5899V32.0907H304.607C307.385 32.0907 309.612 31.9122 311.294 31.5597C312.972 31.2071 314.282 30.6895 315.217 30.0156C316.152 29.3373 316.783 28.5028 317.105 27.5031C317.427 26.5035 317.588 25.3298 317.588 23.9732C317.588 22.6165 317.427 21.541 317.105 20.5414C316.783 19.5418 316.152 18.7028 315.217 18.0289C314.282 17.3506 312.972 16.8374 311.294 16.4804C309.612 16.1278 307.385 15.9493 304.607 15.9493H274.283V1.4502H305.095C310.52 1.4502 315.088 1.93216 318.805 2.90056C322.518 3.86895 325.524 5.28361 327.814 7.15346C330.104 9.02331 331.737 11.3751 332.708 14.2089C333.678 17.0472 334.161 20.3004 334.161 23.9732C334.161 27.6459 333.678 30.9795 332.708 33.7821C331.737 36.5846 330.122 38.9364 327.863 40.8375C325.6 42.7386 322.647 44.1711 318.997 45.1395C315.347 46.1079 310.843 46.5899 305.484 46.5899H274.288H274.283ZM274.283 1.4502H290.463V69.1129H274.283V1.4502ZM333.866 69.1084H314.296L288.62 35.2771H308.19L333.866 69.1084Z"
            fill="url(#paint4_linear_6148_34673)"
          />
        </g>
        <path
          d="M89.3836 89.6588L76.2906 77.083H47.6309L63.0499 92.0373L89.3836 89.6588Z"
          fill="#E83713"
        />
        <path
          d="M62.9648 144.742L89.3388 129.854L89.3835 89.6592L63.0498 92.0378"
          fill="#BA2209"
        />
        <path
          d="M62.9646 144.742L32.6095 144.711L31.5449 143.729L30.4848 144.733H0V77.0791H47.635L63.054 92.0334L62.9691 144.737L62.9646 144.742ZM12.4041 132.398H25.5195L31.4286 126.806L37.4764 132.38L50.5425 132.394L50.5291 118.716L43.1662 111.901L50.6365 106.796V97.2413L42.5758 89.4228H12.3997V132.398H12.4041Z"
          fill="#FF4A1C"
        />
        <g filter="url(#filter1_d_6148_34673)">
          <path
            d="M106.428 76.8873L119.119 84.4247L87.7257 120.38L73 115.257L106.424 76.8828L106.428 76.8873ZM73.0045 115.262H130.36V129.761H73.0045V115.262ZM106.428 76.8873H122.608V144.545H106.428V76.8873Z"
            fill="url(#paint5_linear_6148_34673)"
          />
          <path
            d="M142.179 84.3306C146.831 78.4042 153.997 75.4365 163.686 75.4365C173.375 75.4365 180.545 78.3997 185.193 84.3306C189.845 90.2614 192.167 99.0573 192.167 110.718C192.167 122.379 189.841 131.179 185.193 137.106C180.541 143.037 173.375 146 163.686 146C153.997 146 146.826 143.037 142.179 137.106C137.527 131.179 135.205 122.384 135.205 110.718C135.205 99.0529 137.531 90.2614 142.179 84.3306ZM154.726 126.038C156.632 129.421 159.651 131.113 163.784 131.113C167.917 131.113 170.758 129.421 172.699 126.038C174.641 122.656 175.607 117.551 175.607 110.718C175.607 103.886 174.636 98.861 172.699 95.447C170.762 92.0331 167.788 90.3239 163.784 90.3239C161.521 90.3239 159.633 90.7568 158.117 91.627C156.6 92.4972 155.388 93.7869 154.485 95.4917C153.581 97.2009 152.919 99.3251 152.498 101.869C152.078 104.417 151.868 107.362 151.868 110.714C151.868 117.546 152.82 122.651 154.726 126.034V126.038Z"
            fill="url(#paint6_linear_6148_34673)"
          />
          <path
            d="M230.442 76.8873L243.132 84.4247L211.739 120.38L197.014 115.257L230.437 76.8828L230.442 76.8873ZM197.014 115.262H254.369V129.761H197.014V115.262ZM230.442 76.8873H246.621V144.545H230.442V76.8873Z"
            fill="url(#paint7_linear_6148_34673)"
          />
        </g>
      </g>
      <defs>
        <filter
          id="filter0_d_6148_34673"
          x="-20"
          y="-16"
          width="374.162"
          height="110.563"
          filterUnits="userSpaceOnUse"
          color-interpolation-filters="sRGB"
        >
          <feFlood flood-opacity="0" result="BackgroundImageFix" />
          <feColorMatrix
            in="SourceAlpha"
            type="matrix"
            values="0 0 0 0 0 0 0 0 0 0 0 0 0 0 0 0 0 0 127 0"
            result="hardAlpha"
          />
          <feOffset dy="4" />
          <feGaussianBlur stdDeviation="10" />
          <feComposite in2="hardAlpha" operator="out" />
          <feColorMatrix
            type="matrix"
            values="0 0 0 0 0 0 0 0 0 0 0 0 0 0 0 0 0 0 0.1 0"
          />
          <feBlend
            mode="normal"
            in2="BackgroundImageFix"
            result="effect1_dropShadow_6148_34673"
          />
          <feBlend
            mode="normal"
            in="SourceGraphic"
            in2="effect1_dropShadow_6148_34673"
            result="shape"
          />
        </filter>
        <filter
          id="filter1_d_6148_34673"
          x="53"
          y="59.4365"
          width="221.369"
          height="110.563"
          filterUnits="userSpaceOnUse"
          color-interpolation-filters="sRGB"
        >
          <feFlood flood-opacity="0" result="BackgroundImageFix" />
          <feColorMatrix
            in="SourceAlpha"
            type="matrix"
            values="0 0 0 0 0 0 0 0 0 0 0 0 0 0 0 0 0 0 127 0"
            result="hardAlpha"
          />
          <feOffset dy="4" />
          <feGaussianBlur stdDeviation="10" />
          <feComposite in2="hardAlpha" operator="out" />
          <feColorMatrix
            type="matrix"
            values="0 0 0 0 0 0 0 0 0 0 0 0 0 0 0 0 0 0 0.1 0"
          />
          <feBlend
            mode="normal"
            in2="BackgroundImageFix"
            result="effect1_dropShadow_6148_34673"
          />
          <feBlend
            mode="normal"
            in="SourceGraphic"
            in2="effect1_dropShadow_6148_34673"
            result="shape"
          />
        </filter>
        <linearGradient
          id="paint0_linear_6148_34673"
          x1="0.756716"
          y1="1.45022"
          x2="61.2706"
          y2="3.95178"
          gradientUnits="userSpaceOnUse"
        >
          <stop stop-color="#343638" />
          <stop offset="1" stop-color="#111113" />
        </linearGradient>
        <linearGradient
          id="paint1_linear_6148_34673"
          x1="64.5583"
          y1="1.45022"
          x2="129.027"
          y2="4.29007"
          gradientUnits="userSpaceOnUse"
        >
          <stop stop-color="#343638" />
          <stop offset="1" stop-color="#111113" />
        </linearGradient>
        <linearGradient
          id="paint2_linear_6148_34673"
          x1="132.183"
          y1="1.45022"
          x2="196.652"
          y2="4.29007"
          gradientUnits="userSpaceOnUse"
        >
          <stop stop-color="#343638" />
          <stop offset="1" stop-color="#111113" />
        </linearGradient>
        <linearGradient
          id="paint3_linear_6148_34673"
          x1="198.002"
          y1="2.24945e-05"
          x2="272.762"
          y2="3.66361"
          gradientUnits="userSpaceOnUse"
        >
          <stop stop-color="#343638" />
          <stop offset="1" stop-color="#111113" />
        </linearGradient>
        <linearGradient
          id="paint4_linear_6148_34673"
          x1="275.09"
          y1="1.45022"
          x2="339.558"
          y2="4.29007"
          gradientUnits="userSpaceOnUse"
        >
          <stop stop-color="#343638" />
          <stop offset="1" stop-color="#111113" />
        </linearGradient>
        <linearGradient
          id="paint5_linear_6148_34673"
          x1="72.3675"
          y1="80.2998"
          x2="138.16"
          y2="88.3713"
          gradientUnits="userSpaceOnUse"
        >
          <stop stop-color="#343638" />
          <stop offset="1" stop-color="#111113" />
        </linearGradient>
        <linearGradient
          id="paint6_linear_6148_34673"
          x1="134.577"
          y1="79"
          x2="200.003"
          y2="86.6432"
          gradientUnits="userSpaceOnUse"
        >
          <stop stop-color="#343638" />
          <stop offset="1" stop-color="#111113" />
        </linearGradient>
        <linearGradient
          id="paint7_linear_6148_34673"
          x1="196.381"
          y1="80.2998"
          x2="262.169"
          y2="88.3701"
          gradientUnits="userSpaceOnUse"
        >
          <stop stop-color="#343638" />
          <stop offset="1" stop-color="#111113" />
        </linearGradient>
        <clipPath id="clip0_6148_34673">
          <rect width="350" height="146" fill="white" />
        </clipPath>
      </defs>
</svg>