<svg width="162" height="66" viewBox="0 0 162 66" fill="none" xmlns="http://www.w3.org/2000/svg">
<g filter="url(#filter0_d_1848_9282)">
<path d="M43.9994 45.8142L32.4446 45.8028L32.0393 45.4282L31.635 45.8118L20.0312 45.8123V20H38.1628L44.0312 25.7062L43.9994 45.8142ZM24.7546 41.1046L29.7465 41.1044L31.996 38.9706L34.2986 41.0969L39.2722 41.1018L39.2678 35.8834L36.465 33.2827L39.3079 31.3353V27.69L36.2404 24.7075H24.7546V41.1046Z" fill="#FF4A1C"/>
</g>
<path d="M59.3693 28.2603V27.1246H63.4812V39.4681H59.3693V38.3324C58.5271 39.32 57.3545 39.8136 55.852 39.8136C54.1838 39.8136 52.7966 39.1964 51.6907 37.962C50.5842 36.7113 50.0312 35.1561 50.0312 33.2962C50.0312 31.42 50.5842 29.8731 51.6907 28.655C52.797 27.4043 54.1842 26.7788 55.852 26.7788C57.3545 26.7792 58.5271 27.2728 59.3693 28.2603ZM54.8857 35.2468C55.348 35.7404 55.9756 35.9875 56.7682 35.9875C57.5608 35.9875 58.1884 35.7407 58.6507 35.2468C59.1293 34.7369 59.369 34.0865 59.369 33.2965C59.369 32.5066 59.1293 31.8565 58.6507 31.3463C58.1881 30.8527 57.5608 30.6055 56.7682 30.6055C55.9756 30.6055 55.3477 30.8523 54.8857 31.3463C54.4064 31.8565 54.1675 32.5066 54.1675 33.2965C54.1675 34.0865 54.4068 34.7369 54.8857 35.2468Z" fill="white"/>
<path d="M69.9713 27.1247V29.4208C70.2023 28.6309 70.6607 28.0099 71.346 27.5567C72.0309 27.1043 72.8113 26.8779 73.6869 26.8779V31.4205C72.7457 31.2724 71.8868 31.4451 71.1109 31.939C70.3509 32.4327 69.9713 33.2392 69.9713 34.3583V39.4686H65.8594V27.1247H69.9713Z" fill="white"/>
<path d="M78.9634 25.4213C78.5007 25.8823 77.9478 26.1125 77.3039 26.1125C76.66 26.1125 76.0983 25.8823 75.6194 25.4213C75.1567 24.9443 74.9258 24.3845 74.9258 23.7424C74.9258 23.1006 75.1567 22.5492 75.6194 22.0885C76.098 21.6278 76.6596 21.3972 77.3039 21.3972C77.9478 21.3972 78.5011 21.6278 78.9634 22.0885C79.442 22.5496 79.6816 23.1006 79.6816 23.7424C79.6816 24.3845 79.442 24.9443 78.9634 25.4213ZM79.3597 39.4682H75.2477V27.1247H79.3597V39.4682Z" fill="white"/>
<path d="M89.4169 27.1247V31.0501H86.8408V34.6297C86.8408 35.1565 87.0267 35.4899 87.3983 35.6294C87.7699 35.7695 88.4423 35.8145 89.4169 35.765V39.4682C86.9728 39.7645 85.239 39.5423 84.2151 38.8015C83.2242 38.0282 82.7289 36.6702 82.7289 34.728V31.0501H80.8711V27.1247H82.7289V24.9031L86.8408 23.6687V27.125H89.4169V27.1247Z" fill="white"/>
<path d="M97.4175 34.2839L99.3497 27.1248H103.908L99.672 39.2709C99.0114 41.1305 98.0781 42.4718 96.8729 43.295C95.6674 44.1178 94.1069 44.4882 92.1914 44.4058V40.5545C93.0667 40.5545 93.7273 40.4472 94.1729 40.2336C94.6188 40.0197 94.9818 39.6327 95.2628 39.0733L90.3086 27.1248H94.9158L97.4175 34.2839Z" fill="white"/>
<path d="M113.639 39.8386C111.029 39.8386 108.866 38.9829 107.149 37.2712C105.448 35.5598 104.598 33.4119 104.598 30.8279C104.598 28.2442 105.448 26.1046 107.149 24.4091C108.85 22.6811 111.013 21.8171 113.639 21.8171C115.207 21.8171 116.661 22.1875 117.998 22.9279C119.336 23.6687 120.384 24.6646 121.144 25.9149L117.305 28.1119C116.974 27.5034 116.483 27.0219 115.831 26.6678C115.178 26.314 114.448 26.1371 113.639 26.1371C112.268 26.1371 111.145 26.5733 110.27 27.4456C109.428 28.3183 109.007 29.4453 109.007 30.8279C109.007 32.2436 109.428 33.379 110.27 34.2347C111.129 35.0908 112.252 35.5186 113.639 35.5186C114.448 35.5186 115.178 35.3421 115.831 34.9879C116.483 34.6342 116.974 34.1447 117.305 33.5192L121.144 35.7412C120.384 37.0088 119.34 38.0085 118.01 38.7406C116.681 39.472 115.224 39.8386 113.639 39.8386Z" fill="white"/>
<path d="M131.526 28.2603V27.1246H135.638V39.4681H131.526V38.3324C130.684 39.32 129.511 39.8136 128.009 39.8136C126.34 39.8136 124.953 39.1964 123.847 37.962C122.74 36.7113 122.188 35.1561 122.188 33.2962C122.188 31.42 122.74 29.8731 123.847 28.655C124.953 27.4043 126.34 26.7788 128.009 26.7788C129.511 26.7792 130.684 27.2728 131.526 28.2603ZM127.042 35.2468C127.505 35.7404 128.132 35.9875 128.925 35.9875C129.717 35.9875 130.345 35.7407 130.807 35.2468C131.286 34.7369 131.526 34.0865 131.526 33.2965C131.526 32.5066 131.286 31.8565 130.807 31.3463C130.345 30.8527 129.717 30.6055 128.925 30.6055C128.132 30.6055 127.504 30.8523 127.042 31.3463C126.563 31.8565 126.324 32.5066 126.324 33.2965C126.324 34.0865 126.563 34.7369 127.042 35.2468Z" fill="white"/>
<path d="M141.877 30.7291C141.877 30.943 142.054 31.1203 142.409 31.2598C142.764 31.4 143.305 31.5523 144.032 31.7163C144.527 31.815 144.985 31.9427 145.406 32.0988C145.827 32.2553 146.249 32.4775 146.67 32.7655C147.091 33.0535 147.421 33.4485 147.661 33.9504C147.9 34.4527 148.02 35.0242 148.02 35.6663C148.02 37.098 147.491 38.1434 146.434 38.8014C145.361 39.4761 144.106 39.8136 142.67 39.8136C139.895 39.8136 138.046 38.8347 137.121 36.8758L140.713 35.0737C141.026 35.9789 141.67 36.4313 142.645 36.4313C143.388 36.4313 143.759 36.2091 143.759 35.7646C143.759 35.551 143.59 35.3738 143.252 35.234C142.913 35.0945 142.372 34.9338 141.629 34.7525C141.134 34.6538 140.684 34.5178 140.279 34.345C139.874 34.1723 139.462 33.9463 139.041 33.6662C138.62 33.3865 138.293 33.012 138.062 32.543C137.831 32.0739 137.716 31.535 137.716 30.9261C137.716 29.6097 138.203 28.5892 139.177 27.865C140.151 27.1409 141.324 26.7788 142.695 26.7788C145.122 26.7788 146.823 27.7335 147.797 29.6425L144.329 31.1982C143.966 30.4906 143.453 30.1365 142.793 30.1365C142.182 30.1365 141.877 30.3342 141.877 30.7291Z" fill="white"/>
<path d="M161.794 34.8025H153.249C153.661 35.8066 154.586 36.3082 156.023 36.3082C156.898 36.3082 157.649 36.0206 158.277 35.4442L161.249 37.518C160.044 39.0487 158.268 39.8141 155.924 39.8141C153.826 39.8141 152.142 39.2055 150.871 37.9871C149.616 36.7527 148.988 35.1974 148.988 33.3213C148.988 31.4617 149.608 29.9065 150.846 28.6555C152.085 27.4048 153.661 26.7793 155.577 26.7793C157.426 26.7793 158.954 27.3965 160.16 28.6309C161.365 29.849 161.968 31.396 161.968 33.2721C161.968 33.8481 161.91 34.358 161.794 34.8025ZM153.199 31.9636H157.955C157.641 30.812 156.865 30.2356 155.626 30.2356C154.355 30.2353 153.546 30.8116 153.199 31.9636Z" fill="white"/>
<defs>
<filter id="filter0_d_1848_9282" x="0.03125" y="0" width="64" height="65.8142" filterUnits="userSpaceOnUse" color-interpolation-filters="sRGB">
<feFlood flood-opacity="0" result="BackgroundImageFix"/>
<feColorMatrix in="SourceAlpha" type="matrix" values="0 0 0 0 0 0 0 0 0 0 0 0 0 0 0 0 0 0 127 0" result="hardAlpha"/>
<feOffset/>
<feGaussianBlur stdDeviation="10"/>
<feComposite in2="hardAlpha" operator="out"/>
<feColorMatrix type="matrix" values="0 0 0 0 1 0 0 0 0 0.290196 0 0 0 0 0.109804 0 0 0 0.2 0"/>
<feBlend mode="normal" in2="BackgroundImageFix" result="effect1_dropShadow_1848_9282"/>
<feBlend mode="normal" in="SourceGraphic" in2="effect1_dropShadow_1848_9282" result="shape"/>
</filter>
</defs>
</svg>
